<svg width="25" height="25" viewBox="0 0 25 25" fill="none" xmlns="http://www.w3.org/2000/svg">
<path fill-rule="evenodd" clip-rule="evenodd" d="M14.9298 4.64082C14.9763 4.4328 15.0004 4.21842 15.0004 4.00024C15.0004 2.34323 13.657 1.00024 12.0004 1.00024C10.3431 1.00024 9.00041 2.34296 9.00041 4.00024C9.00041 4.21839 9.02451 4.43274 9.07099 4.64074C6.73686 5.71801 5.09619 8.04268 5.00437 10.7593L4.99385 11.3891C4.93789 13.0732 4.51918 14.726 3.76399 16.2355L2.10583 19.5528C1.77349 20.2177 2.25698 20.9999 3.00031 20.9999H8.00061C8.00061 23.2092 9.79133 24.9999 12.0006 24.9999C14.2099 24.9999 16.0006 23.2092 16.0006 20.9999H21.0003C21.7436 20.9999 22.2271 20.2177 21.8948 19.5528L20.2368 16.2358C19.4815 14.726 19.0627 13.0732 19.0068 11.3891L18.9963 10.7593C18.9044 8.04275 17.2638 5.71813 14.9298 4.64082ZM12.9978 4.07051C12.9995 4.04721 13.0004 4.02378 13.0004 4.00024C13.0004 3.44795 12.5526 3.00024 12.0004 3.00024C11.4477 3.00024 11.0004 3.44753 11.0004 4.00024C11.0004 4.02377 11.0013 4.04719 11.003 4.07048C11.3288 4.024 11.6617 3.99994 12.0003 3.99994C12.339 3.99994 12.672 4.024 12.9978 4.07051ZM13.2155 6.14875C13.2809 6.17414 13.3481 6.19229 13.4161 6.20334C15.4213 6.79458 16.9029 8.60952 16.9957 10.7831L17.0069 11.4252C17.0684 13.4076 17.5592 15.3537 18.448 17.1304L19.3825 18.9999H4.61813L5.55279 17.1301C6.44146 15.3537 6.93223 13.4076 6.99372 11.4252L7.00493 10.7831C7.09775 8.6096 8.57919 6.79473 10.5843 6.20341C10.6525 6.19235 10.72 6.17413 10.7857 6.1486C11.1745 6.0515 11.5814 5.99994 12.0003 5.99994C12.4194 5.99994 12.8265 6.05155 13.2155 6.14875ZM14.0006 20.9999H10.0006C10.0006 22.1047 10.8959 22.9999 12.0006 22.9999C13.1053 22.9999 14.0006 22.1047 14.0006 20.9999Z" fill="#406A76"/>
<circle cx="20" cy="5" r="4.5" fill="#FF5267" stroke="white"/>
</svg>
