<svg width="10" height="10" viewBox="0 0 10 10" fill="none" xmlns="http://www.w3.org/2000/svg">
<path fill-rule="evenodd" clip-rule="evenodd" d="M3.72386 4.66667L0.195262 1.13807C-0.0650874 0.877722 -0.0650874 0.455612 0.195262 0.195262C0.455612 -0.0650874 0.877722 -0.0650874 1.13807 0.195262L4.66667 3.72386L8.19526 0.195262C8.45561 -0.0650874 8.87772 -0.0650874 9.13807 0.195262C9.39842 0.455612 9.39842 0.877722 9.13807 1.13807L5.60947 4.66667L9.13807 8.19526C9.39842 8.45561 9.39842 8.87772 9.13807 9.13807C8.87772 9.39842 8.45561 9.39842 8.19526 9.13807L4.66667 5.60948L1.13807 9.13807C0.877722 9.39842 0.455612 9.39842 0.195262 9.13807C-0.0650874 8.87772 -0.0650874 8.45561 0.195262 8.19526L3.72386 4.66667Z" fill="black"/>
</svg>
