<svg width="12" height="14" viewBox="0 0 12 14" fill="none" xmlns="http://www.w3.org/2000/svg">
<path fill-rule="evenodd" clip-rule="evenodd" d="M4.00063 8.93091V12.6781C4.00063 13.083 4.36911 13.3555 4.69921 13.1946L7.12549 12.0121C7.67153 11.7447 8.00026 11.1405 8.00026 10.4645V8.93093L11.6866 3.57651C12.4457 2.46222 11.7393 0.858887 10.494 0.858887H1.50636C0.260942 0.858887 -0.445507 2.46262 0.312965 3.57405L4.00063 8.93091ZM5.00052 8.73845C5.00052 8.61363 4.96366 8.49235 4.89574 8.39369L1.10459 2.88651C0.853531 2.51861 1.08876 1.98462 1.50634 1.98462H10.494C10.9116 1.98462 11.147 2.51892 10.8947 2.88933L7.10512 8.39367C7.0372 8.49233 7.00033 8.61362 7.00033 8.73845V10.4646C7.00033 10.7054 6.89609 10.897 6.7274 10.9796L5.00052 11.8212V8.73845Z" fill="#F7EDFF"/>
</svg>
