<svg version="1.0" xmlns="http://www.w3.org/2000/svg" width="10" height="14" viewBox="0 0 1280 1791"><path d="M1050 43.5c-16.3 2.6-33.5 9.6-45.4 18.3-2.8 2-199.4 173.7-436.8 381.4-355.9 311.4-432.9 379.2-438.4 386-7.5 9.5-16.3 26.7-19.4 37.8-1.1 4.1-2.5 12.3-3.2 18.2-1.4 12.5-.2 27.3 3.2 39.8 3.1 11.1 11.9 28.3 19.4 37.8 5.5 6.8 82.6 74.7 439 386.6 237.9 208.1 435.3 380.2 438.8 382.5 42.6 28.1 99.3 22.4 135.2-13.5 40.3-40.3 41.8-106.9 3.4-148-3.2-3.4-177.5-156.4-387.3-340S377 896.3 377 896c0-.3 170.2-149.5 378.3-331.5 208-182 381.3-333.9 385.1-337.5 12-11.4 19.7-22.8 25.9-38.6 5.5-13.8 7-22.6 7-39.9 0-16.7-2-26.8-8.3-41.7-9.7-23.5-32.3-46.1-55.8-55.8-18.3-7.7-41-10.5-59.2-7.5z" fill="#406A76"/></svg>