<svg width="111" height="24" viewBox="0 0 111 24" fill="none" xmlns="http://www.w3.org/2000/svg">
<path fill-rule="evenodd" clip-rule="evenodd" d="M106.003 0.0347827C106.348 -0.0711484 106.722 0.0709938 106.905 0.377978C107.491 1.36162 108.785 3.64401 107.835 6.04799C106.885 8.45144 104.283 9.47832 103.174 9.81828C102.828 9.92475 102.454 9.78207 102.271 9.47562C101.685 8.49144 100.399 6.13069 101.349 3.7267C102.299 1.32325 104.894 0.375276 106.003 0.0347827ZM110.941 13.3471C111.071 13.6292 110.981 13.9621 110.726 14.1443C109.984 14.6745 108.314 15.6278 106.413 15.136C104.512 14.6447 103.538 13.0077 103.159 12.1883C103.028 11.9062 103.118 11.5738 103.373 11.3911C104.115 10.8609 105.785 9.9081 107.686 10.3994C109.588 10.8907 110.562 12.5277 110.941 13.3471Z" fill="#45D0C1"/>
<path fill-rule="evenodd" clip-rule="evenodd" d="M13.0519 3.05702L12.8317 2.49638C12.6253 1.88595 12.2637 1.63647 11.4183 1.63647H9.3387C8.52884 1.63647 8.06677 1.9747 7.81715 2.66251L6.94239 4.94079C8.55103 3.70154 10.5424 3.03104 12.592 3.03862C12.7257 3.03862 12.8488 3.04562 12.9615 3.05203L12.9615 3.05203C12.9924 3.05379 13.0225 3.0555 13.0519 3.05702ZM55.163 14.8108C55.163 17.4944 57.3929 19.6699 60.1437 19.6699V19.665C62.8922 19.665 65.1221 17.4928 65.1244 14.8108C65.1244 12.1272 62.8945 9.95176 60.1437 9.95176C57.3929 9.95176 55.163 12.1272 55.163 14.8108ZM50.7548 14.8059C50.7548 9.74774 54.9583 5.64684 60.1437 5.64684C65.3285 5.64792 69.5309 9.74828 69.5326 14.8059C69.5326 19.8647 65.329 23.9656 60.1437 23.9656C54.9583 23.9656 50.7548 19.8647 50.7548 14.8059ZM21.8919 23.0167V6.60501C21.8919 6.42535 22.0411 6.28032 22.2253 6.28032H25.7371C25.9207 6.28032 26.0699 6.42535 26.0699 6.60501V8.59377C26.0699 8.59377 27.4478 5.55571 31.5415 6.0487C31.7429 6.07251 31.8938 6.23919 31.8938 6.43671V9.75077C31.8943 9.95479 31.7312 10.1242 31.5221 10.1366C30.3866 10.1972 29.7665 10.4521 28.7819 10.9007C27.7496 11.3456 26.9175 12.14 26.4388 13.1373V23.0097C26.4388 23.3517 26.1548 23.6288 25.8042 23.6288H22.527C22.1798 23.6277 21.8969 23.3555 21.8919 23.0167ZM71.0059 23.0167V6.65642C71.0014 6.45241 71.1679 6.28411 71.377 6.28032H71.387H74.8056C75.0147 6.28032 75.1834 6.44537 75.1834 6.64939V8.59377C75.1834 8.59377 76.564 5.55571 80.6577 6.0487C80.8591 6.07251 81.0105 6.23919 81.01 6.43671V9.75077C81.0105 9.95479 80.8474 10.1242 80.6389 10.1366C79.5056 10.1972 78.8827 10.4521 77.8981 10.9007C76.8663 11.3472 76.0343 12.1411 75.555 13.1373V23.0097C75.555 23.3517 75.2704 23.6288 74.9204 23.6288H71.6427C71.2949 23.6288 71.0109 23.356 71.0059 23.0167ZM95.7914 16.2576C95.5784 16.2592 95.3882 16.3885 95.3122 16.5828C94.3115 19.0824 91.4232 20.3168 88.861 19.3411C88.06 19.0353 87.3527 18.5331 86.8102 17.8816L95.645 14.6752L99.2983 13.2731C99.6477 13.1437 99.8374 12.7747 99.7343 12.4245C98.3686 7.5449 93.206 4.66918 88.2037 6.0026C83.2019 7.33547 80.2548 12.372 81.621 17.2517C82.9872 22.1318 88.1504 25.007 93.1516 23.6741C96.6008 22.7547 99.2156 20.0045 99.8951 16.5801C99.924 16.4275 99.8214 16.2814 99.6649 16.2532C99.6488 16.25 99.6317 16.2484 99.615 16.2484L95.7914 16.2576ZM90.6721 9.9471C92.2624 9.94764 93.7568 10.6901 94.692 11.9456L85.7103 15.2034C85.7103 15.1388 85.7057 15.074 85.701 15.0086L85.701 15.0084C85.6962 14.9417 85.6914 14.8744 85.6914 14.8062C85.6914 12.1226 87.9213 9.9471 90.6721 9.9471ZM45.568 9.56174C46.3667 7.97236 47.8517 6.81428 49.6173 6.40625C50.2397 6.26013 50.8842 6.22766 51.5194 6.31046L45.0942 23.1102C44.9833 23.4057 44.6976 23.6037 44.3754 23.6081H44.2866C44.2234 23.6248 44.1579 23.6335 44.0925 23.6335H40.2927C39.9716 23.6286 39.687 23.4316 39.5744 23.1383L33.1726 6.34077C33.719 6.26717 34.2731 6.2807 34.8139 6.38081C36.731 6.73473 38.3552 7.96749 39.1795 9.69216C39.3281 9.99034 39.4568 10.2966 39.565 10.611L42.3413 18.5314L45.1275 10.5851C45.2479 10.2339 45.3955 9.89131 45.568 9.56174ZM10.3323 8.02231L7.68308 15.0671H12.7908L10.3323 8.02231ZM12.5922 4.3868C12.8784 4.38356 13.1652 4.40196 13.4498 4.44092L20.6054 22.9247C20.626 22.9805 20.6371 23.0395 20.6376 23.099C20.6393 23.3896 20.4013 23.6266 20.1051 23.6288H16.0702C15.8461 23.6299 15.6453 23.493 15.5671 23.2862L13.5884 18.0987H6.94255L5.00719 23.2722C4.92953 23.4789 4.72873 23.6169 4.50408 23.6174H0.531848C0.473049 23.6163 0.414806 23.6061 0.35989 23.5871C0.0792102 23.4897 -0.0683408 23.1877 0.030951 22.9128L5.26125 9.55541C5.32837 9.3844 5.39992 9.21989 5.47425 9.06025C5.48507 9.03563 5.49644 9.01209 5.50781 8.98855C5.51918 8.96501 5.53055 8.94147 5.54137 8.91684C5.59629 8.80428 5.65176 8.69118 5.70889 8.58349C7.66145 4.85653 11.018 4.3868 12.5922 4.3868Z" fill="#45D0C1"/>
</svg>
