<svg width="16" height="16" viewBox="0 0 16 16" fill="none" xmlns="http://www.w3.org/2000/svg">
<path fill-rule="evenodd" clip-rule="evenodd" d="M11.3547 10.4118C12.1759 9.38534 12.6669 8.08335 12.6669 6.66675C12.6669 3.35322 9.98039 0.666748 6.66687 0.666748C3.35335 0.666748 0.66687 3.35322 0.66687 6.66675C0.66687 9.98027 3.35335 12.6667 6.66687 12.6667C8.08347 12.6667 9.38547 12.1757 10.4119 11.3546L14.1955 15.1382C14.4558 15.3985 14.8779 15.3985 15.1383 15.1382C15.3986 14.8778 15.3986 14.4557 15.1383 14.1953L11.3547 10.4118ZM6.66687 2.00008C9.24401 2.00008 11.3335 4.0896 11.3335 6.66675C11.3335 9.24389 9.24401 11.3334 6.66687 11.3334C4.08973 11.3334 2.0002 9.24389 2.0002 6.66675C2.0002 4.0896 4.08973 2.00008 6.66687 2.00008Z" fill="#406A76"/>
</svg>
