<svg width="128" height="196" viewBox="0 0 128 196" fill="none" xmlns="http://www.w3.org/2000/svg">
<rect width="128" height="196" fill="#F5F5F5"/>
<rect x="0.25" y="0.25" width="127.5" height="195.5" fill="white"/>
<g clip-path="url(#clip0_0_1)">
<path fill-rule="evenodd" clip-rule="evenodd" d="M64.4873 44.2477C66.9393 43.4944 69.5973 44.5036 70.8979 46.6855C75.0627 53.6789 84.2593 69.8973 77.5075 86.9828C70.7558 104.068 52.2631 111.367 44.3813 113.777C41.9222 114.537 39.2642 113.521 37.9636 111.346C33.7988 104.353 24.6591 87.5727 31.4108 70.4872C38.1626 53.4017 56.6055 46.6642 64.4873 44.2477ZM99.5822 138.858C100.506 140.862 99.8665 143.228 98.0542 144.529C92.7807 148.296 80.9118 155.069 67.4012 151.572C53.8906 148.083 46.9683 136.448 44.2747 130.628C43.3436 128.616 43.9833 126.257 45.7956 124.956C51.0691 121.189 62.9379 114.416 76.4486 117.913C89.9663 121.403 96.8886 133.037 99.5822 138.858Z" fill="#45D0C1"/>
</g>
<rect x="0.25" y="0.25" width="127.5" height="195.5" stroke="#B2B4B9" stroke-width="0.5"/>
<defs>
<clipPath id="clip0_0_1">
<rect width="71" height="108.547" fill="white" transform="translate(29 44)"/>
</clipPath>
</defs>
</svg>
